<svg xmlns="http://www.w3.org/2000/svg" viewBox="0 0 160 160" role="img" aria-labelledby="title desc">
  <title id="title">Beekeeper avatar</title>
  <desc id="desc">A friendly illustrated beekeeper portrait</desc>
  <defs>
    <linearGradient id="bg" x1="0" y1="0" x2="1" y2="1">
      <stop stop-color="#FEF3C7"/><stop offset="1" stop-color="#FDBA74"/>
    </linearGradient>
  </defs>
  <rect width="160" height="160" rx="36" fill="url(#bg)"/>
  <circle cx="80" cy="68" r="32" fill="#B45309"/>
  <path d="M47 64c5-30 61-40 69 0-15-8-43-10-69 0Z" fill="#7C2D12"/>
  <circle cx="68" cy="70" r="4" fill="#1F2937"/><circle cx="92" cy="70" r="4" fill="#1F2937"/>
  <path d="M70 88c7 6 13 6 20 0" fill="none" stroke="#7C2D12" stroke-width="4" stroke-linecap="round"/>
  <path d="M38 151c4-30 21-45 42-45s38 15 42 45" fill="#F8FAFC"/>
  <path d="M54 116h52l-9 35H63l-9-35Z" fill="#F59E0B" opacity=".9"/>
  <path d="M55 126h50M59 138h42" stroke="#92400E" stroke-width="5" opacity=".75"/>
</svg>
